<?xml version="1.0" standalone="no"?>
<!DOCTYPE svg PUBLIC "-//W3C//DTD SVG 20010904//EN"
 "http://www.w3.org/TR/2001/REC-SVG-20010904/DTD/svg10.dtd">
<svg version="1.0" xmlns="http://www.w3.org/2000/svg"
 width="600.000000pt" height="600.000000pt" viewBox="0 0 600.000000 600.000000"
 preserveAspectRatio="xMidYMid meet">
<metadata>
Created by potrace 1.11, written by Peter Selinger 2001-2013
</metadata>
<g transform="translate(0.000000,600.000000) scale(0.100000,-0.100000)"
fill="#000000" stroke="none">
<path d="M0 5272 l0 -349 108 -21 c628 -124 1233 -459 1777 -984 131 -127 365
-383 365 -400 0 -4 -13 -8 -28 -8 -52 0 -185 -40 -268 -80 -150 -73 -291 -195
-357 -312 -12 -21 -24 -38 -27 -38 -3 0 -60 43 -125 96 -272 217 -595 409
-885 526 -159 64 -499 168 -550 168 -7 0 -9 -114 -8 -376 l3 -376 150 -38
c268 -68 531 -171 760 -296 165 -91 237 -140 328 -226 l77 -73 -31 -45 c-74
-106 -112 -232 -111 -370 0 -114 24 -199 80 -286 39 -60 125 -145 172 -169
l26 -14 -42 -86 c-125 -257 -107 -486 51 -633 148 -139 342 -173 600 -107
l100 26 20 -28 c33 -46 177 -187 226 -220 294 -201 699 -233 969 -76 36 21
105 77 153 125 l88 88 41 -26 c217 -137 549 -166 838 -73 265 86 467 289 532
533 10 38 18 86 18 107 0 40 11 49 59 49 48 0 174 40 252 81 175 91 316 249
392 440 36 91 61 238 53 317 l-7 63 49 54 c104 114 145 219 145 375 1 83 -4
118 -21 167 -49 139 -147 264 -270 344 -87 57 -159 86 -267 107 -44 8 -81 16
-82 16 -1 1 -9 37 -18 81 -49 239 -231 445 -462 526 -284 99 -598 45 -824
-142 l-60 -50 -64 59 c-79 72 -199 135 -315 163 -71 18 -103 21 -205 16 -227
-10 -384 -79 -552 -241 -40 -38 -75 -67 -77 -65 -2 2 -46 67 -98 144 -580 866
-1301 1466 -2088 1740 -125 43 -330 97 -455 120 -50 8 -100 18 -112 21 l-23 4
0 -348z m3560 -1456 c167 -31 314 -122 397 -247 l24 -37 52 55 c208 220 506
294 795 197 258 -86 441 -321 442 -566 l0 -58 68 0 c193 -1 392 -111 498 -276
18 -29 45 -88 60 -131 23 -68 26 -90 22 -173 -6 -125 -40 -202 -128 -292 l-62
-63 -2 -140 c-1 -129 -4 -147 -33 -228 -41 -115 -83 -185 -167 -274 -139 -147
-313 -232 -482 -233 l-61 0 -6 -88 c-6 -94 -38 -203 -81 -275 -93 -160 -269
-285 -483 -344 -88 -24 -115 -27 -258 -27 -134 0 -173 4 -240 22 -98 27 -209
79 -272 127 -43 33 -49 35 -58 20 -5 -10 -31 -45 -58 -80 -221 -290 -669 -339
-1038 -113 -94 58 -218 178 -263 254 l-30 50 -100 -34 c-84 -29 -120 -36 -211
-40 -170 -7 -272 23 -367 107 -147 130 -148 361 -3 615 25 44 45 82 45 86 0 3
-21 16 -47 29 -122 59 -204 154 -243 278 -56 182 5 399 154 547 42 43 97 85
136 105 36 19 66 35 68 37 2 1 -6 32 -17 69 -69 222 39 455 285 615 163 106
352 150 520 119 77 -14 188 -67 246 -118 l46 -41 22 62 c54 148 155 277 284
363 172 114 357 155 546 121z"/>
<path d="M4355 2347 c-41 -35 -39 -90 4 -129 27 -25 39 -29 65 -24 75 15 104
99 51 151 -32 33 -84 33 -120 2z"/>
<path d="M2812 2245 c-73 -31 -71 -130 4 -161 85 -36 158 63 102 139 -20 27
-69 37 -106 22z"/>
<path d="M4009 1813 c-12 -3 -16 -19 -17 -73 -2 -106 -26 -177 -81 -232 -142
-142 -386 -76 -488 134 -17 34 -34 71 -37 82 -5 14 -12 17 -34 11 -15 -4 -28
-8 -30 -10 -8 -7 51 -131 85 -179 50 -70 98 -110 169 -143 51 -24 72 -28 149
-28 105 1 166 23 227 82 63 61 108 194 108 321 0 43 -6 47 -51 35z"/>
</g>
</svg>
